<svg width="48" height="48" viewBox="0 0 48 48" fill="none" xmlns="http://www.w3.org/2000/svg">
<g clip-path="url(#clip0_534_339)">
<rect x="17.6357" y="24.7071" width="22" height="8" rx="1" transform="rotate(-45 17.6357 24.7071)" fill="#525252"/>
<path d="M4.9082 19.0504L23.293 0.665639C23.6835 0.275114 24.3167 0.275115 24.7072 0.665639L28.9498 4.90828C29.3404 5.2988 29.3404 5.93197 28.9498 6.32249L10.5651 24.7073L4.9082 19.0504Z" fill="#525252"/>
<path d="M23.041 37.6873L41.6776 19.0506C42.0682 18.6601 42.7013 18.6601 43.0919 19.0506L47.3345 23.2933C47.725 23.6838 47.725 24.317 47.3345 24.7075L28.6979 43.3441L23.041 37.6873Z" fill="#EA580C"/>
<path d="M0.665115 24.707C0.274591 24.3165 0.27459 23.6834 0.665115 23.2928L4.90776 19.0502C5.29828 18.6597 5.93145 18.6597 6.32197 19.0502L28.9494 41.6776C29.3399 42.0681 29.3399 42.7013 28.9494 43.0918L24.7067 47.3345C24.3162 47.725 23.6831 47.725 23.2925 47.3345L0.665115 24.707Z" fill="#EA580C"/>
</g>
<defs>
<clipPath id="clip0_534_339">
<rect width="48" height="48" rx="24" fill="white"/>
</clipPath>
</defs>
</svg>
