<svg width="21" height="24" viewBox="0 0 21 24" fill="none" xmlns="http://www.w3.org/2000/svg">
<path d="M6.8624 20.162C5.6764 19.092 5.3304 16.846 5.8244 15.218C6.6804 16.244 7.8674 16.57 9.0964 16.753C10.9934 17.036 12.8564 16.93 14.6184 16.075C14.8204 15.977 15.0064 15.846 15.2264 15.715C15.3924 16.188 15.4354 16.665 15.3774 17.152C15.2374 18.337 14.6394 19.252 13.6894 19.946C13.3094 20.223 12.9074 20.471 12.5144 20.733C11.3094 21.537 10.9834 22.48 11.4364 23.852L11.4804 24C10.9038 23.7526 10.414 23.339 10.0734 22.812C9.71908 22.2729 9.52999 21.6421 9.5294 20.997C9.5254 20.677 9.5254 20.355 9.4814 20.039C9.3754 19.27 9.0094 18.926 8.3204 18.906C7.6134 18.886 7.0534 19.317 6.9054 19.996C6.8934 20.049 6.8774 20.1 6.8604 20.161H6.8624V20.162ZM0.901398 15.717C0.901398 15.717 4.1414 14.142 7.3914 14.142L9.8424 6.577C9.9344 6.211 10.2024 5.963 10.5044 5.963C10.8064 5.963 11.0744 6.211 11.1664 6.577L13.6164 14.142C17.4664 14.142 20.1074 15.717 20.1074 15.717L14.5924 0.727C14.4344 0.285 14.1674 0 13.8074 0H7.2014C6.8414 0 6.5864 0.285 6.4174 0.727L0.901398 15.717Z" fill="#79716C"/>
</svg>
