<svg width="17" height="24" viewBox="0 0 17 24" fill="none" xmlns="http://www.w3.org/2000/svg">
<path d="M16.12 12C16.12 14.2078 14.3292 15.9984 12.1212 15.9984C9.91314 15.9984 8.12234 14.2078 8.12234 12C8.12234 9.79219 9.91314 8.00156 12.1212 8.00156C14.3292 8.00156 16.12 9.79219 16.12 12ZM12.1212 8.00156C14.3292 8.00156 16.12 6.21094 16.12 4.00313C16.12 1.79531 14.3292 0 12.1212 0H4.11882C1.9108 0 0.119995 1.79063 0.119995 3.99844C0.119995 6.20625 1.9108 7.99688 4.11882 7.99688C1.9108 8.00156 0.119995 9.79219 0.119995 12C0.119995 14.2078 1.9108 15.9984 4.11882 15.9984C1.9108 15.9984 0.119995 17.7891 0.119995 20.0016C0.119995 22.2141 1.9108 24 4.11882 24C6.32685 24 8.11765 22.2094 8.11765 20.0016V8.00156H12.1212Z" fill="#79716C"/>
</svg>
