<svg width="22" height="22" viewBox="0 0 22 22" fill="none" xmlns="http://www.w3.org/2000/svg">
<path d="M11 0C8.08262 0 5.28473 1.15893 3.22183 3.22183C1.15893 5.28473 0 8.08262 0 11C0 13.9174 1.15893 16.7153 3.22183 18.7782C5.28473 20.8411 8.08262 22 11 22C13.9174 22 16.7153 20.8411 18.7782 18.7782C20.8411 16.7153 22 13.9174 22 11C22 8.08262 20.8411 5.28473 18.7782 3.22183C16.7153 1.15893 13.9174 0 11 0ZM13.8994 19.9678H13.8142C13.7501 19.9721 13.6858 19.9629 13.6254 19.9408C13.5651 19.9187 13.5101 19.8842 13.464 19.8394C13.4204 19.7944 13.3866 19.7409 13.3645 19.6822C13.3424 19.6236 13.3326 19.561 13.3357 19.4984V18.2096C13.3418 17.7812 13.3448 17.3485 13.3448 16.9116C13.3432 16.5925 13.2966 16.2753 13.2064 15.9692C13.121 15.6599 12.9485 15.3815 12.7096 15.1672C13.3485 15.1056 13.9766 14.9605 14.5778 14.7354C15.0849 14.5426 15.5436 14.241 15.9216 13.8518C16.2947 13.4603 16.5724 12.9873 16.7328 12.4712C16.9275 11.8391 17.0203 11.1801 17.0078 10.5188C17.0122 10.0569 16.9314 9.59828 16.7695 9.16575C16.6056 8.72968 16.358 8.32985 16.0408 7.98875C16.1093 7.81679 16.1591 7.63792 16.1892 7.45525C16.2198 7.27192 16.2351 7.08736 16.2351 6.90158C16.2351 6.66203 16.2076 6.42583 16.1526 6.193C16.1037 5.95486 16.036 5.72098 15.95 5.49358C15.9175 5.48109 15.883 5.47487 15.8483 5.47525H15.7474C15.536 5.47769 15.33 5.51161 15.1296 5.577C14.9091 5.64021 14.6937 5.71988 14.4852 5.81533C14.2778 5.90931 14.0755 6.01427 13.8793 6.12975C13.6825 6.24647 13.5074 6.35708 13.354 6.46158C11.8118 6.03281 10.1818 6.03281 8.63958 6.46158C8.46751 6.34676 8.29268 6.23612 8.11525 6.12975C7.91669 6.01244 7.71095 5.90773 7.49925 5.81625C7.29088 5.71861 7.07471 5.63859 6.853 5.577C6.65712 5.51224 6.45246 5.47793 6.24617 5.47525H6.14533C6.11087 5.47499 6.07667 5.48121 6.0445 5.49358C5.9588 5.72179 5.88837 5.95545 5.83367 6.193C5.78478 6.42644 5.76003 6.66264 5.75942 6.90158C5.75942 7.08736 5.775 7.27192 5.80617 7.45525C5.83733 7.63858 5.88622 7.81642 5.95283 7.98875C5.63643 8.33036 5.38982 8.7305 5.22683 9.16667C5.064 9.59902 4.98227 10.0577 4.98575 10.5197C4.97336 11.1774 5.06367 11.8331 5.25342 12.463C5.41933 12.9791 5.69617 13.453 6.06375 13.8527C6.44417 14.2395 6.9025 14.5402 7.40758 14.7363C8.00617 14.9655 8.63317 15.1122 9.27117 15.1727C9.09242 15.3336 8.951 15.5316 8.85683 15.7529C8.76666 15.9714 8.70505 16.2006 8.6735 16.4349C8.3372 16.5961 7.96933 16.6806 7.59642 16.6824C7.2502 16.6955 6.90864 16.5993 6.62017 16.4074C6.34367 16.2026 6.10956 15.9461 5.93083 15.6521C5.85112 15.5284 5.76161 15.4113 5.66317 15.3019C5.55959 15.1867 5.44543 15.0814 5.32217 14.9875C5.20091 14.8963 5.06765 14.8223 4.92617 14.7675C4.78716 14.7065 4.63704 14.675 4.48525 14.6749C4.44858 14.6761 4.41192 14.6792 4.37525 14.6841C4.3252 14.6844 4.27537 14.6905 4.22675 14.7024C4.18404 14.7134 4.14367 14.7321 4.10758 14.7574C4.09138 14.7668 4.07782 14.7801 4.0682 14.7961C4.05858 14.8122 4.0532 14.8304 4.05258 14.8491C4.05643 14.8932 4.06992 14.9359 4.0921 14.9743C4.11427 15.0126 4.14459 15.0456 4.18092 15.0709C4.26647 15.1388 4.33736 15.191 4.39358 15.2277L4.42108 15.2469C4.54331 15.3416 4.66003 15.4434 4.77125 15.5522C4.87453 15.6426 4.96619 15.7434 5.04625 15.8547C5.12936 15.9634 5.19994 16.0799 5.258 16.2039C5.32522 16.3261 5.39581 16.4676 5.46975 16.6283C5.64208 17.0628 5.94825 17.4304 6.34425 17.6779C6.7595 17.9007 7.22517 18.0116 7.69725 17.9997C7.85736 17.9997 8.01686 17.9905 8.17575 17.9722C8.33342 17.9471 8.49078 17.9193 8.64783 17.8888V19.4865C8.65069 19.5509 8.63991 19.6152 8.61622 19.6752C8.59253 19.7352 8.55644 19.7895 8.51033 19.8345C8.46422 19.8796 8.40911 19.9145 8.34861 19.9368C8.28812 19.9591 8.22359 19.9684 8.15925 19.9641H8.10242C5.96479 19.2735 4.14394 17.8424 2.96777 15.9286C1.7916 14.0147 1.33739 11.7437 1.68692 9.5247C2.03646 7.30565 3.16679 5.28431 4.87435 3.82466C6.58191 2.36502 8.75451 1.56298 11.0009 1.56298C13.2473 1.56298 15.4199 2.36502 17.1275 3.82466C18.835 5.28431 19.9654 7.30565 20.3149 9.5247C20.6644 11.7437 20.2102 14.0147 19.0341 15.9286C17.8579 17.8424 16.037 19.2735 13.8994 19.9641V19.9678Z" fill="#79716C"/>
</svg>
