<svg width="65" height="24" viewBox="0 0 65 24" fill="none" xmlns="http://www.w3.org/2000/svg">
<path d="M30.6306 0.00544198C23.5047 0.0169508 16.8524 6.31916 16.9664 13.5435C16.7902 18.8765 21.3748 23.5812 26.6207 23.8921C31.9937 24.4192 37.3189 21.2021 39.6383 16.3729C41.0699 21.8132 47.2412 24.8904 52.5643 23.7718C58.9185 22.8102 64.608 16.9332 64.0724 10.281C64.1095 4.76882 58.9774 0.203979 53.592 0.293605C48.8339 0.204141 43.9569 2.36783 41.3937 6.49579C40.2451 7.36311 40.55 10.0076 38.9378 9.83352C35.7591 9.86784 32.5689 9.76473 29.3974 9.88529C28.6453 10.9585 25.8279 14.6764 28.4716 14.681C30.2983 14.681 32.125 14.681 33.9518 14.681C32.4531 17.5397 28.5278 19.0206 25.7334 17.1146C22.2316 14.7105 23.3062 8.97625 26.7676 7.05002C28.9977 5.39296 32.4774 5.71744 34.1365 8.03331C36.0672 8.05836 38.0787 7.05224 40.0427 6.70612C40.8201 5.2448 38.2872 3.01729 37.0368 1.97458C35.1997 0.615739 32.9092 -0.0686794 30.6306 0.00544198ZM52.4528 6.02812C55.9456 5.74526 58.6603 9.55242 57.6033 12.8056C56.7148 16.9689 51.1028 19.7207 47.6091 16.8187C44.1402 14.024 45.9878 8.13383 49.8261 6.66826C50.6578 6.3188 51.5466 6.06112 52.4528 6.02812ZM5.68352 6.1118C4.7704 6.49262 4.30452 7.67143 5.73635 7.27133C9.23861 7.24143 12.7674 7.36967 16.2531 7.24125C17.1779 6.48192 16.9391 5.82304 15.7393 6.11179C12.3873 6.11179 9.03543 6.1118 5.68352 6.1118ZM0.967053 8.98875C0.0541774 9.36949 -0.412124 10.5508 1.01988 10.1442C5.68174 10.1032 10.3599 10.186 15.0116 10.0676C15.8949 8.98292 14.754 8.8427 13.8407 8.98875C9.54948 8.98875 5.25827 8.98875 0.967053 8.98875ZM8.27632 11.8663C7.25849 12.4436 7.47958 13.4029 8.71624 13.0282C10.6645 12.9948 12.6473 13.1307 14.5741 12.9919C15.1873 11.8273 14.0361 11.7332 13.1538 11.8663C11.5279 11.8663 9.90213 11.8663 8.27632 11.8663Z" fill="#79716C"/>
</svg>
