<svg width="22" height="22" viewBox="0 0 22 22" fill="none" xmlns="http://www.w3.org/2000/svg">
<path d="M20.1667 0C20.6157 5.9236e-05 21.0491 0.16492 21.3847 0.463311C21.7202 0.761703 21.9346 1.17287 21.9872 1.61883L22 1.83333V20.1667C21.9999 20.6157 21.8351 21.0491 21.5367 21.3847C21.2383 21.7202 20.8271 21.9346 20.3812 21.9872L20.1667 22H1.83333C1.38429 21.9999 0.950882 21.8351 0.615318 21.5367C0.279754 21.2383 0.0653715 20.8271 0.0128333 20.3812L0 20.1667V1.83333C5.9236e-05 1.38429 0.16492 0.950882 0.463311 0.615318C0.761703 0.279754 1.17287 0.0653715 1.61883 0.0128333L1.83333 0H20.1667ZM20.1667 1.83333H1.83333V20.1667H20.1667V1.83333ZM14.1937 8.48833C16.9473 8.48833 17.457 10.2997 17.457 12.6555L17.4533 17.4533H14.74L14.7345 12.8333C14.7162 11.8983 14.5548 10.8808 13.3247 10.8808C11.9992 10.8808 11.726 11.8525 11.6967 12.914L11.693 17.4533H8.97783V8.70833H11.5848V9.9H11.6215C11.8825 9.45399 12.2595 9.08703 12.7124 8.83815C13.1653 8.58926 13.6772 8.46957 14.1937 8.48833ZM7.271 8.7065V17.4533H4.55033V8.7065H7.271ZM5.9125 4.35783C6.33066 4.35783 6.73169 4.52395 7.02737 4.81963C7.32305 5.11531 7.48917 5.51634 7.48917 5.9345C7.48917 6.35266 7.32305 6.75369 7.02737 7.04937C6.73169 7.34505 6.33066 7.51117 5.9125 7.51117C5.49434 7.51117 5.09331 7.34505 4.79763 7.04937C4.50195 6.75369 4.33583 6.35266 4.33583 5.9345C4.33583 5.51634 4.50195 5.11531 4.79763 4.81963C5.09331 4.52395 5.49434 4.35783 5.9125 4.35783Z" fill="#79716C"/>
</svg>
