<svg width="24" height="24" viewBox="0 0 24 24" fill="none" xmlns="http://www.w3.org/2000/svg">
<path d="M16.019 22.2434C3.96199 25.1141 1.66541 19.3726 1.66541 12.4829V9.03803C1.66541 2.14829 4.53613 1 9.70344 1H14.2966C19.4639 1 22.3346 2.72244 22.3346 7.3156V11.9088C22.3346 19.3726 10.8517 16.5019 6.83271 16.5019C5.68442 16.5019 5.11028 24.5399 16.019 22.2434Z" stroke="#79716C" stroke-width="1.5" stroke-linecap="round" stroke-linejoin="round"/>
<path d="M6.25867 13.057V6.74144C6.25867 6.74144 6.83281 4.44485 9.12939 4.44485C11.426 4.44485 12.0001 6.74144 12.0001 6.74144M12.0001 6.74144V9.61216M12.0001 6.74144C12.0001 6.74144 12.5743 4.44485 14.8708 4.44485C17.1674 4.44485 17.7416 6.74144 17.7416 6.74144V13.057" stroke="#79716C" stroke-width="1.5" stroke-linecap="round" stroke-linejoin="round"/>
</svg>
