<svg width="11" height="24" viewBox="0 0 11 24" fill="none" xmlns="http://www.w3.org/2000/svg">
<path d="M10.7036 9.555C9.43956 3.975 6.45156 2.141 6.13056 1.44C5.85056 1.046 5.60056 0.486 5.39556 0C5.35956 0.495 5.34056 0.685 4.87256 1.184C4.14956 1.75 0.43456 4.866 0.13256 11.204C-0.14944 17.116 4.40256 20.639 5.02056 21.088L5.09056 21.138C5.21925 22.0898 5.32927 23.0439 5.42056 24H5.90156C6.01556 22.968 6.18556 21.944 6.41156 20.93C6.82856 20.634 7.01556 20.467 7.26156 20.237C8.42652 19.1593 9.35234 17.8491 9.97918 16.3911C10.606 14.9332 10.9199 13.3599 10.9006 11.773C10.9106 10.959 10.7976 10.111 10.7036 9.555ZM5.36756 17.75C5.36756 17.75 5.36756 9.459 5.64256 9.46C5.85556 9.46 6.13256 20.155 6.13256 20.155C5.75156 20.11 5.36756 18.395 5.36756 17.75Z" fill="#79716C"/>
</svg>
