<svg width="25" height="24" viewBox="0 0 25 24" fill="none" xmlns="http://www.w3.org/2000/svg">
<path d="M1.15603 2.53352C1.15603 2.53352 0.288835 1.34525 0.128714 0.578702C0.0763966 0.178385 0.259506 -0.0142422 0.678834 0.00081918C1.45011 0.0705773 2.41956 0.562055 3.45322 1.19146C4.14602 1.51092 4.7009 1.67819 5.1337 1.71227C6.04925 1.77727 7.05754 2.13082 8.14985 2.75072C10.5152 4.06265 12.4462 5.88032 13.8746 8.28381L17.0532 14.7467C17.5812 15.6687 18.2367 16.1784 19.0207 16.2775C20.6996 16.8886 22.1859 17.7749 23.4755 18.9441C23.6246 19.0995 23.6309 19.2255 23.4526 19.3151C23.0467 19.5688 21.9354 19.5854 20.8518 19.6124C20.5672 19.679 20.3024 19.7884 20.0527 19.9318C19.6588 20.0912 19.6041 20.3385 19.7927 20.6476C20.9421 21.9596 22.4023 23.0416 24.12 23.9342L21.191 24C18.3532 23.0044 15.5321 21.9279 12.7308 20.7539C11.1914 20.1459 10.0634 19.2469 9.33887 18.0626C8.5026 16.7689 7.76144 15.4356 7.01077 14.1054C6.6723 13.7083 6.4337 13.6623 6.29656 13.9754L5.5237 16.8593C5.30016 17.1708 5.08614 17.1352 4.88084 16.83C3.82102 15.3294 3.62761 13.2327 4.19834 10.6112L4.46864 9.71623L4.18248 8.68967L3.31688 7.11536L1.15603 2.53193V2.53352ZM5.01321 4.05313C4.94742 4.08801 5.19394 4.73486 5.59108 4.95444C5.77894 5.04164 5.8701 4.95206 5.89626 4.74041C5.95571 4.39003 5.77339 4.09039 5.41352 3.82959C5.16541 3.72257 5.0251 3.7852 5.01321 4.05313Z" fill="#79716C"/>
</svg>
