<svg width="25" height="24" viewBox="0 0 25 24" fill="none" xmlns="http://www.w3.org/2000/svg">
<path d="M11.3341 0.00645851C11.2825 0.0111499 11.1182 0.0275699 10.9704 0.0392985C7.56163 0.346586 4.36867 2.18561 2.34639 5.01218C1.22029 6.5838 0.500054 8.36652 0.227913 10.2548C0.131725 10.914 0.119995 11.1086 0.119995 12.0024C0.119995 12.8961 0.131725 13.0908 0.227913 13.7499C0.880114 18.256 4.08715 22.0419 8.43672 23.4447C9.21559 23.6957 10.0367 23.8669 10.9704 23.9701C11.3341 24.0101 12.9059 24.0101 13.2695 23.9701C14.8813 23.7918 16.2467 23.393 17.5933 22.7058C17.7998 22.6002 17.8397 22.572 17.8115 22.5486C17.7927 22.5345 16.913 21.3546 15.8572 19.9284L13.9382 17.3365L11.5335 13.778C10.2103 11.8217 9.12175 10.222 9.11236 10.222C9.10298 10.2196 9.09359 11.8006 9.08891 13.7311C9.08188 17.1113 9.07953 17.2473 9.03729 17.3271C8.97631 17.442 8.92939 17.4889 8.83084 17.5405C8.75577 17.5781 8.69008 17.5851 8.33584 17.5851H7.92996L7.82205 17.5171C7.75166 17.4725 7.70006 17.4139 7.66488 17.3459L7.6156 17.2403L7.62028 12.5372L7.62732 7.8317L7.70006 7.74022C7.7376 7.69097 7.81735 7.62763 7.87365 7.59713C7.96984 7.55021 8.00738 7.54553 8.41324 7.54553C8.89185 7.54553 8.9716 7.5643 9.09595 7.70035C9.13113 7.73786 10.4332 9.69888 11.991 12.061C13.5487 14.4231 15.6789 17.6484 16.7253 19.2318L18.6256 22.11L18.7217 22.0466C19.5734 21.493 20.4743 20.7049 21.1874 19.8839C22.7053 18.141 23.6836 16.0158 24.0121 13.7499C24.1083 13.0908 24.12 12.8961 24.12 12.0024C24.12 11.1086 24.1083 10.914 24.0121 10.2548C23.3599 5.74872 20.1528 1.96277 15.8033 0.560044C15.0361 0.311399 14.2197 0.140163 13.3048 0.0369525C13.0795 0.0134955 11.5288 -0.0123071 11.3341 0.00645851ZM16.2467 7.26403C16.3593 7.32034 16.4508 7.42824 16.4836 7.54082C16.5024 7.60183 16.5071 8.90604 16.5024 11.8452L16.4954 16.0627L15.7517 14.9227L15.0056 13.7827V10.7169C15.0056 8.7348 15.015 7.6206 15.0291 7.56665C15.0666 7.43527 15.1487 7.33207 15.2614 7.27109C15.3575 7.22182 15.3927 7.21714 15.7611 7.21714C16.1083 7.21714 16.1693 7.22182 16.2467 7.26403Z" fill="#79716C"/>
</svg>
