<svg width="22" height="24" viewBox="0 0 22 24" fill="none" xmlns="http://www.w3.org/2000/svg">
<path d="M9.70497 23.7533L6.80732 22.0155C6.37539 21.7709 6.58666 21.6833 6.72938 21.6329C7.30591 21.4302 7.42328 21.3835 8.0383 21.0285C8.10309 20.9924 8.1876 21.0057 8.25521 21.0457L10.4806 22.3847C10.5622 22.4304 10.6749 22.4304 10.75 22.3847L19.427 17.3092C19.5078 17.2626 19.5594 17.1674 19.5594 17.0713V6.92116C19.5594 6.82218 19.5078 6.72891 19.4252 6.67847L10.7519 1.60675C10.6712 1.55916 10.5651 1.55916 10.4843 1.60675L1.81295 6.68037C1.72845 6.72891 1.67586 6.82504 1.67586 6.92116V17.0722C1.67586 17.1693 1.72845 17.2607 1.81201 17.3073L4.18948 18.6987C5.47962 19.3526 6.26929 18.5826 6.26929 17.8089V7.78723C6.26929 7.64542 6.38197 7.53407 6.52187 7.53407H7.62234C7.75943 7.53407 7.87305 7.64542 7.87305 7.78723V17.8089C7.87305 19.5534 6.93596 20.5546 5.30403 20.5546C4.80262 20.5546 4.40732 20.5546 3.30497 20.0035L1.02985 18.6759C0.468352 18.3466 0.119995 17.7308 0.119995 17.0713V6.92116C0.119995 6.26162 0.468352 5.6468 1.02985 5.31846L9.70779 0.236265C10.2571 -0.078755 10.9867 -0.078755 11.5313 0.236265L20.2083 5.31846C20.7707 5.64776 21.12 6.26257 21.12 6.92116V17.0713C21.12 17.7308 20.7707 18.3437 20.2083 18.6759L11.5313 23.7533C10.9169 24.1 10.3087 24.064 9.70497 23.7533ZM17.0242 10.6167H15.8975C15.781 10.6167 15.6787 10.5329 15.6543 10.4178C15.3838 9.19959 14.7266 8.81033 12.9444 8.81033C10.9482 8.81033 10.7162 9.51461 10.7162 10.0428C10.7162 10.6833 10.9904 10.8699 13.6843 11.2306C16.351 11.5875 17.6186 12.0938 17.6186 13.9925C17.6186 15.9092 16.0439 17.0066 13.2946 17.0066C9.49652 17.0066 8.70215 15.2392 8.70215 13.7574C8.70215 13.6165 8.81295 13.5042 8.95192 13.5042H10.074C10.1989 13.5042 10.304 13.5956 10.3228 13.7193C10.4918 14.8766 10.996 15.4619 13.2937 15.4619C15.1209 15.4619 15.8993 15.0422 15.8993 14.06C15.8993 13.4928 15.6796 13.0731 12.8383 12.7904C10.4646 12.5525 8.99511 12.0205 8.99511 10.0961C8.99511 8.32115 10.4712 7.26283 12.9453 7.26283C15.7256 7.26283 17.1003 8.24025 17.2749 10.3397C17.2896 10.4659 17.1776 10.6179 17.0242 10.6167Z" fill="#79716C"/>
</svg>
