<svg width="28" height="24" viewBox="0 0 28 24" fill="none" xmlns="http://www.w3.org/2000/svg">
<path d="M11.2122 11.9733C11.2122 10.6434 12.2935 9.56315 13.6248 9.56315C14.9561 9.56315 16.0374 10.6434 16.0374 11.9733C16.0374 13.3032 14.9561 14.3834 13.6248 14.3834C12.2935 14.3834 11.2122 13.3032 11.2122 11.9733ZM27.12 11.9733C27.12 13.6297 25.164 15.3052 22.0112 16.3471C21.8478 16.3999 21.6796 16.4527 21.5066 16.5055C21.5691 16.7504 21.622 16.9904 21.67 17.2257C21.9632 18.714 22.0112 20.0967 21.8046 21.2202C21.5835 22.4156 21.0837 23.2654 20.3628 23.6831C20.0023 23.8944 19.5746 24 19.0988 24C17.7916 24 16.1335 23.2126 14.4034 21.7243C14.1583 21.513 13.918 21.2922 13.6729 21.0569C13.4854 21.2394 13.298 21.4122 13.1106 21.5755C11.9667 22.5741 10.7893 23.3038 9.71273 23.6831C9.15043 23.8848 8.62178 23.9856 8.15079 23.9856C7.66058 23.9856 7.22804 23.88 6.86279 23.6687C5.48347 22.8717 5.00287 20.5768 5.5844 17.5281C5.64207 17.2161 5.71416 16.8944 5.79586 16.5679C5.54114 16.4959 5.29604 16.4191 5.06054 16.3375C3.62356 15.8478 2.40284 15.1948 1.53295 14.4507C0.610205 13.6633 0.119995 12.8039 0.119995 11.9733C0.119995 10.3793 1.86937 8.81899 4.80583 7.80116C5.12783 7.69073 5.46425 7.58511 5.81028 7.48429C5.73338 7.18182 5.6661 6.88415 5.60843 6.59129C5.32487 5.14136 5.27201 3.81146 5.45463 2.74082C5.65649 1.57416 6.13228 0.74357 6.83876 0.335478C8.27094 -0.495109 10.7076 0.359484 13.1875 2.56318C13.3364 2.69761 13.4854 2.83684 13.6392 2.98087C13.8651 2.76482 14.091 2.55838 14.3121 2.36153C15.427 1.39172 16.5565 0.681156 17.5753 0.306672C18.6855 -0.10142 19.6467 -0.10142 20.3484 0.301871C21.7854 1.12766 22.2612 3.66263 21.5883 6.90816C21.5499 7.105 21.5018 7.30185 21.4537 7.50349C21.7517 7.58991 22.0401 7.68113 22.3188 7.77715C23.7174 8.25726 24.8948 8.8814 25.7311 9.57276C26.6394 10.3313 27.12 11.1619 27.12 11.9733ZM14.4466 3.80186C15.2156 4.62764 15.9845 5.58786 16.7247 6.6441C17.9982 6.76412 19.2142 6.95617 20.3388 7.21543C20.382 7.03298 20.4253 6.85534 20.4589 6.6777C21.0885 3.61942 20.5454 1.747 19.7717 1.3005C19.3776 1.07484 18.7384 1.10365 17.9694 1.38691C17.0803 1.71339 16.0759 2.35193 15.0666 3.23053C14.8599 3.40817 14.6533 3.60021 14.4466 3.80186ZM7.22324 15.7373C7.99219 15.9054 8.82363 16.0398 9.70793 16.1358C9.41957 15.6845 9.13602 15.2236 8.86207 14.7531C8.59294 14.2922 8.33822 13.8265 8.09792 13.3608C7.7567 14.1674 7.45873 14.9692 7.22324 15.7373ZM8.86207 9.25108C9.13121 8.79018 9.40515 8.33408 9.6887 7.89238C8.83324 7.998 8.01142 8.14203 7.23765 8.31007C7.47315 9.06864 7.7615 9.85122 8.09792 10.6482C8.33822 10.1825 8.59294 9.71679 8.86207 9.25108ZM9.86172 14.177C10.2798 14.8972 10.722 15.5981 11.1834 16.2655C11.9667 16.3135 12.7838 16.3423 13.6248 16.3423C14.4707 16.3423 15.2973 16.3135 16.0951 16.2559C16.5324 15.5981 16.965 14.902 17.3927 14.1674C17.8156 13.4376 18.2049 12.7031 18.5557 11.9829C18.2049 11.2771 17.8204 10.557 17.3927 9.82241C16.9746 9.09745 16.5372 8.40609 16.0903 7.74354C15.2877 7.68113 14.461 7.65232 13.6248 7.65232C12.7982 7.65232 11.9715 7.68593 11.1641 7.74835C10.7124 8.41089 10.2702 9.10705 9.85691 9.82721C9.4436 10.5426 9.05912 11.2723 8.70828 12.0021C9.05912 12.7271 9.4436 13.4568 9.86172 14.177ZM17.5657 16.1166C18.4548 16.011 19.3007 15.867 20.084 15.6893C19.8437 14.9356 19.541 14.1386 19.1757 13.3128C18.9306 13.7881 18.6663 14.2682 18.3923 14.7435C18.1184 15.214 17.8445 15.6749 17.5657 16.1166ZM20.0264 8.32447C19.2478 8.14683 18.4212 8.0028 17.5609 7.89238C17.8396 8.32928 18.1136 8.78058 18.3827 9.24148C18.6567 9.71679 18.9162 10.1873 19.1613 10.6482C19.5025 9.85122 19.7957 9.06864 20.0264 8.32447ZM12.034 6.53847C12.5579 6.51447 13.0865 6.50006 13.62 6.50006C14.1631 6.50006 14.6965 6.51447 15.23 6.53847C14.7061 5.84232 14.1727 5.19897 13.6392 4.62284C13.0961 5.20377 12.5579 5.84712 12.034 6.53847ZM6.74264 6.37044C6.7955 6.6441 6.85798 6.91776 6.93007 7.20102C8.04986 6.94657 9.26578 6.75932 10.5394 6.6393C11.2795 5.59746 12.0532 4.64205 12.8366 3.79706C12.7021 3.66743 12.5675 3.5426 12.4329 3.42737C10.0876 1.35331 8.19404 0.887602 7.42028 1.3341C7.02619 1.55975 6.73302 2.13108 6.59365 2.93766C6.43505 3.86907 6.48311 5.05974 6.74264 6.37044ZM7.4347 12.0069C6.90123 10.845 6.45428 9.69758 6.11786 8.59814C5.79586 8.68936 5.48828 8.78538 5.19031 8.891C2.48934 9.83201 1.27824 11.1187 1.27824 11.9781C1.27824 12.8711 2.58066 14.2778 5.43541 15.2524C5.65168 15.3244 5.87275 15.3965 6.10344 15.4637C6.44467 14.345 6.89162 13.1832 7.4347 12.0069ZM12.8655 20.236C12.0725 19.391 11.2939 18.4259 10.549 17.3745C9.23214 17.2689 8.01142 17.0912 6.91565 16.8464C6.83876 17.1537 6.77628 17.4513 6.71861 17.7394C6.18514 20.548 6.69938 22.238 7.4395 22.6653C8.21327 23.1118 10.0828 22.6893 12.356 20.7017C12.5194 20.5576 12.6924 20.3992 12.8655 20.236ZM15.254 17.4561C14.7206 17.4801 14.1727 17.4945 13.6248 17.4945C13.0865 17.4945 12.5627 17.4849 12.0484 17.4657C12.5819 18.1667 13.125 18.8148 13.6729 19.4054C14.1967 18.8244 14.7302 18.1763 15.254 17.4561ZM20.5454 17.4513C20.5022 17.2353 20.4541 17.0192 20.3964 16.7936C19.2814 17.0528 18.0511 17.2401 16.7439 17.3553C15.999 18.4355 15.2348 19.4006 14.4803 20.2264C14.7061 20.4472 14.9368 20.6536 15.1579 20.8457C17.3254 22.7085 19.0459 23.1118 19.7909 22.6797C20.5646 22.238 21.1317 20.4088 20.5454 17.4513ZM25.9714 11.9733C25.9714 11.5172 25.6253 10.9795 24.9958 10.4562C24.27 9.85122 23.2127 9.29909 21.9488 8.8622C21.6892 8.77578 21.4201 8.68936 21.1462 8.60774C20.8145 9.67838 20.3724 10.8162 19.8293 11.9781C20.3964 13.1736 20.8578 14.321 21.1942 15.3917C21.348 15.3437 21.5018 15.2956 21.6508 15.2476C24.6161 14.2682 25.9714 12.8615 25.9714 11.9733Z" fill="#79716C"/>
</svg>
