<svg width="41" height="24" viewBox="0 0 41 24" fill="none" xmlns="http://www.w3.org/2000/svg">
<path d="M10.12 8C11.453 2.667 14.787 0 20.12 0C28.12 0 29.12 6 33.12 7C35.787 7.667 38.12 6.667 40.12 4C38.787 9.333 35.453 12 30.12 12C22.12 12 21.12 6 17.12 5C14.453 4.333 12.12 5.333 10.12 8ZM0.119995 20C1.453 14.667 4.78699 12 10.12 12C18.12 12 19.12 18 23.12 19C25.787 19.667 28.12 18.667 30.12 16C28.787 21.333 25.453 24 20.12 24C12.12 24 11.12 18 7.12 17C4.453 16.333 2.12 17.333 0.119995 20Z" fill="#79716C"/>
</svg>
