<svg width="22" height="18" viewBox="0 0 22 18" fill="none" xmlns="http://www.w3.org/2000/svg">
<path d="M8.7573 5.49565C8.78365 5.48121 8.81321 5.47363 8.84326 5.47363C8.87331 5.47363 8.90287 5.48121 8.92922 5.49565L14.6231 8.79645C14.6491 8.81158 14.6706 8.83326 14.6856 8.85932C14.7006 8.88539 14.7084 8.91492 14.7084 8.94498C14.7084 8.97504 14.7006 9.00458 14.6856 9.03064C14.6706 9.0567 14.6491 9.07838 14.6231 9.09352L8.92922 12.3943C8.90309 12.4096 8.8734 12.4176 8.84315 12.4177C8.81291 12.4178 8.78316 12.41 8.75694 12.3949C8.73071 12.3798 8.70892 12.3581 8.69377 12.3319C8.67862 12.3057 8.67065 12.276 8.67065 12.2458V5.64419C8.67065 5.58367 8.70366 5.52591 8.7573 5.49565Z" fill="#79716C"/>
<path fill-rule="evenodd" clip-rule="evenodd" d="M15.5789 0.847038C17.2293 0.91718 18.8522 1.03958 19.5674 1.24863C20.0336 1.38342 20.4586 1.64748 20.801 2.01332C21.1421 2.37916 21.3897 2.83439 21.5148 3.33364C22.241 6.46939 22.0732 11.4206 21.5286 14.6664C21.4053 15.1594 21.1598 15.6135 20.8148 15.9867C20.4794 16.3474 20.0534 16.6115 19.5811 16.7514C17.972 17.2204 11.8105 17.2479 11.0678 17.2506L10.3279 17.2479C9.20443 17.2389 8.08114 17.2146 6.95833 17.175L6.53198 17.1585L6.12488 17.1406C4.58451 17.0691 3.09915 16.948 2.42524 16.7527C1.95297 16.6129 1.52691 16.3488 1.19157 15.9881C0.846523 15.6149 0.601038 15.1608 0.477772 14.6677C-0.253904 11.5457 -0.0531059 6.59455 0.464019 3.34877C0.587285 2.85569 0.832769 2.40162 1.17782 2.02845C1.5189 1.66261 1.94525 1.39855 2.41149 1.26376C3.9106 0.827783 9.34315 0.761768 10.691 0.750765L11.0252 0.74939L11.6235 0.75214C12.4211 0.759017 13.879 0.778272 15.3506 0.837411L15.5844 0.847038H15.5789ZM19.8012 2.95129C19.9772 3.13971 20.112 3.38177 20.1835 3.65821C20.8464 6.53266 20.7075 11.2225 20.1876 14.372C20.1147 14.6334 19.9827 14.863 19.8163 15.0446C19.65 15.2242 19.4387 15.3562 19.2043 15.4269H19.2015C18.9485 15.5012 18.3915 15.5837 17.5649 15.6539C16.7809 15.7199 15.8595 15.7653 14.9518 15.7996C13.1501 15.8643 11.4447 15.8712 11.0733 15.8725L10.3444 15.8684H10.3389C9.22918 15.86 8.11964 15.8362 7.01059 15.7969L6.59249 15.7818L6.18952 15.7639C5.42896 15.7281 4.70279 15.6814 4.08389 15.6222C3.44023 15.559 3.01388 15.4888 2.81033 15.4297H2.80621C2.57215 15.3584 2.36135 15.2259 2.19556 15.046C2.01092 14.8448 1.87907 14.6009 1.81184 14.3363C1.14756 11.4894 1.31397 6.79947 1.80909 3.62246C1.88336 3.36252 2.01539 3.13421 2.18043 2.95542C2.34639 2.77598 2.55717 2.644 2.79108 2.57308H2.79383C3.02488 2.50431 3.52413 2.42729 4.26543 2.3599C4.9751 2.29526 5.8058 2.24575 6.65851 2.21137C8.00115 2.15765 9.34456 2.12555 10.6882 2.11509H11.0156L11.6042 2.11784H11.6056C12.3991 2.12335 13.8336 2.1426 15.2777 2.20036L15.5115 2.20999C16.323 2.24437 17.1207 2.29251 17.7808 2.3544C18.4822 2.42042 18.9498 2.49468 19.1699 2.55795C19.404 2.62926 19.6161 2.76172 19.7819 2.94167L19.8012 2.95129Z" fill="#79716C"/>
</svg>
